<svg xmlns="http://www.w3.org/2000/svg" width="18" height="18" viewBox="0 0 18 18">
  <path id="check_circle_24dp_FILL1_wght400_GRAD0_opsz24" d="M87.74-869.38l-1.935-1.935a.853.853,0,0,0-.63-.247.853.853,0,0,0-.63.247.854.854,0,0,0-.247.63.853.853,0,0,0,.247.63l2.565,2.565a.863.863,0,0,0,.63.27.863.863,0,0,0,.63-.27l5.085-5.085a.854.854,0,0,0,.247-.63.853.853,0,0,0-.247-.63.853.853,0,0,0-.63-.248.853.853,0,0,0-.63.248ZM89-862a8.764,8.764,0,0,1-3.51-.709,9.089,9.089,0,0,1-2.858-1.924,9.09,9.09,0,0,1-1.924-2.858A8.764,8.764,0,0,1,80-871a8.764,8.764,0,0,1,.709-3.51,9.089,9.089,0,0,1,1.924-2.857,9.09,9.09,0,0,1,2.858-1.924A8.764,8.764,0,0,1,89-880a8.764,8.764,0,0,1,3.51.709,9.089,9.089,0,0,1,2.857,1.924,9.089,9.089,0,0,1,1.924,2.857A8.764,8.764,0,0,1,98-871a8.764,8.764,0,0,1-.709,3.51,9.09,9.09,0,0,1-1.924,2.858,9.089,9.089,0,0,1-2.857,1.924A8.764,8.764,0,0,1,89-862Z" transform="translate(-80 880)" fill="#1dab61"/>
</svg>
